<svg xmlns="http://www.w3.org/2000/svg" viewBox="0 0 512 512" width="512" height="512">
  <rect width="512" height="512" fill="#12302f"/>
  <circle cx="356" cy="170" r="70" fill="#e2b350"/>
  <path d="M0 300 C 70 250, 140 250, 210 300 S 350 350, 420 300 S 490 260, 512 270 L512 512 L0 512 Z" fill="#1d6fa5"/>
  <path d="M0 360 C 80 320, 150 330, 230 370 S 380 410, 512 350 L512 512 L0 512 Z" fill="#0f5a87"/>
  <g transform="translate(96 168)">
    <rect x="0" y="40" width="190" height="86" rx="18" fill="#eef3f2"/>
    <path d="M118 40 h52 a20 20 0 0 1 20 20 v20 h-72 z" fill="#c2541b"/>
    <rect x="18" y="56" width="40" height="28" rx="5" fill="#12302f"/>
    <rect x="68" y="56" width="40" height="28" rx="5" fill="#12302f"/>
    <circle cx="48" cy="128" r="20" fill="#12302f"/><circle cx="48" cy="128" r="8" fill="#9aa8a6"/>
    <circle cx="150" cy="128" r="20" fill="#12302f"/><circle cx="150" cy="128" r="8" fill="#9aa8a6"/>
    <rect x="22" y="22" width="120" height="14" rx="5" fill="#e2b350"/>
  </g>
</svg>
